<svg version="1.1" xmlns="http://www.w3.org/2000/svg" xmlns:xlink="http://www.w3.org/1999/xlink" width="69.3994" height="71.0504" viewBox="0,0,69.3994,71.0504"><g transform="translate(-205.3003,-144.47469)"><g data-paper-data="{&quot;isPaintingLayer&quot;:true}" fill-rule="nonzero" stroke-linejoin="miter" stroke-miterlimit="10" stroke-dasharray="" stroke-dashoffset="0" style="mix-blend-mode: normal"><path d="M205.3003,180.82539c0,-19.16412 15.53558,-34.6997 34.6997,-34.6997c19.16411,0 34.6997,15.53558 34.6997,34.6997c0,19.16412 -15.53559,34.6997 -34.6997,34.6997c-19.16412,0 -34.6997,-15.53558 -34.6997,-34.6997z" fill="#ffffff" stroke="none" stroke-width="0" stroke-linecap="butt"/><text transform="translate(223.77929,197.84981) scale(1.23634,1.23634)" font-size="40" xml:space="preserve" fill="#0052ff" fill-rule="nonzero" stroke="none" stroke-width="1" stroke-linecap="butt" stroke-linejoin="miter" stroke-miterlimit="10" stroke-dasharray="" stroke-dashoffset="0" font-family="Sans Serif" font-weight="normal" text-anchor="start" style="mix-blend-mode: normal"><tspan x="0" dy="0">B</tspan></text><path d="M237.26846,195.2612l-6.14229,-0.08125v-10.55203v-15.8445v-4.06269c2.65532,-0.08125 10.71431,0 12.28458,0c0.58855,0 2.36304,0.65003 2.36304,0.65003" fill="none" stroke="#1bff00" stroke-width="5.5" stroke-linecap="round"/><path d="M231.10066,184.37272v-15.55515v-3.9885c2.64086,-0.07977 10.65596,0 12.21768,0c0.58534,0 2.35017,0.63816 2.35017,0.63816" fill="none" stroke="#ffb900" stroke-width="6" stroke-linecap="round"/><path d="M231.08927,169.37549v-4.70011c2.66722,-0.094 10.66742,0.09491 12.24473,0.09491c0.16997,0 2.82411,0.68525 3.5062,0.91317" fill="none" stroke="#ff0000" stroke-width="6" stroke-linecap="round"/><path d="M231.82401,179.32063l11.38947,0.09491" fill="none" stroke="#ffb900" stroke-width="5.5" stroke-linecap="round"/><path d="M225.64515,160.52363v38.20431" fill="none" stroke="#ffffff" stroke-width="6.5" stroke-linecap="round"/></g></g></svg>